<?xml version="1.0" encoding="UTF-8"?>
<svg width="307px" height="306px" viewBox="0 0 307 306" version="1.1" xmlns="http://www.w3.org/2000/svg" xmlns:xlink="http://www.w3.org/1999/xlink">
    <!-- Generator: Sketch 54.1 (76490) - https://sketchapp.com -->
    <title>Outlined/UI/comments Copy 2</title>
    <desc>Created with Sketch.</desc>
    <defs>
        <path d="M163.7684,20.4710495 C84.6274584,20.4710495 20.4710495,84.6274584 20.4710495,163.7684 C20.4710495,242.909341 84.6274584,307.06575 163.7684,307.06575 C242.909341,307.06575 307.06575,242.909341 307.06575,163.7684 C307.06575,125.763579 291.968394,89.3153377 265.094928,62.4418716 C238.221461,35.5684055 201.77322,20.4710495 163.7684,20.4710495 Z M245.6526,153.532875 C245.183632,141.094341 243.780829,128.708617 241.456034,116.480274 C263.871834,125.794602 279.839253,138.896074 284.957016,153.532875 L245.6526,153.532875 Z M225.18155,153.532875 L174.003925,153.532875 L174.003925,102.35525 C188.996481,102.940931 203.88582,105.102287 218.426103,108.80363 C222.302269,123.422426 224.567559,138.421393 225.18155,153.532875 Z M174.003925,81.8841995 L174.003925,42.8868493 C188.640725,48.0046118 201.742197,63.9720308 211.056525,86.3878305 C198.836014,83.9599356 186.450223,82.4544803 174.003925,81.8841995 L174.003925,81.8841995 Z M153.532875,42.8868493 L153.532875,81.8841995 C141.094341,82.3531671 128.708617,83.75597 116.480274,86.0807648 C125.794602,63.9720308 138.896074,48.0046118 153.532875,42.8868493 Z M153.532875,102.35525 L153.532875,153.532875 L102.35525,153.532875 C102.89105,138.535778 105.053174,123.641149 108.80363,109.110696 C123.432719,105.284355 138.426274,103.019882 153.532875,102.35525 L153.532875,102.35525 Z M81.8841995,153.532875 L42.8868493,153.532875 C48.0046118,138.896074 63.9720308,125.794602 86.3878305,116.480274 C83.9599356,128.700785 82.4544803,141.086576 81.8841995,153.532875 L81.8841995,153.532875 Z M81.8841995,174.003925 C82.3531671,186.442458 83.75597,198.828182 86.0807648,211.056525 C63.9720308,201.742197 48.0046118,188.640725 42.8868493,174.003925 L81.8841995,174.003925 Z M102.35525,174.003925 L153.532875,174.003925 L153.532875,225.18155 C138.540318,224.595868 123.650979,222.434512 109.110696,218.733169 C105.23453,204.114373 102.96924,189.115406 102.35525,174.003925 L102.35525,174.003925 Z M153.532875,245.6526 L153.532875,284.957016 C138.896074,279.839253 125.794602,263.871834 116.480274,241.456034 C128.708617,243.780829 141.094341,245.183632 153.532875,245.6526 Z M174.003925,284.957016 L174.003925,245.6526 C186.442458,245.183632 198.828182,243.780829 211.056525,241.456034 C201.742197,263.564768 188.640725,279.532187 174.003925,284.64995 L174.003925,284.957016 Z M174.003925,225.18155 L174.003925,174.003925 L225.18155,174.003925 C224.645749,189.001021 222.483625,203.89565 218.733169,218.426103 C204.104081,222.252444 189.110525,224.516917 174.003925,225.18155 L174.003925,225.18155 Z M245.6526,174.003925 L284.957016,174.003925 C279.839253,188.640725 263.871834,201.742197 241.456034,211.056525 C243.780829,198.828182 245.183632,186.442458 245.6526,174.003925 L245.6526,174.003925 Z M275.028556,111.362512 C262.810211,103.09161 249.471191,96.6116728 235.417075,92.1197245 C231.020982,78.0826048 224.644843,64.7444105 216.481353,52.5082428 C242.062026,64.8775509 262.621184,85.6535021 274.721491,111.362512 L275.028556,111.362512 Z M111.260156,52.8153085 C103.051168,64.9444099 96.6066562,78.1780589 92.1197245,92.1197245 C78.0826048,96.515817 64.7444105,102.891956 52.5082428,111.055446 C64.8775509,85.4747735 85.6535021,64.9156148 111.362512,52.8153085 L111.260156,52.8153085 Z M52.7129533,216.583709 C64.8915161,224.693987 78.1593754,231.03499 92.1197245,235.417075 C96.515817,249.454194 102.891956,262.792389 111.055446,275.028556 C85.4747735,262.659248 64.9156148,241.883297 52.8153085,216.174288 L52.7129533,216.583709 Z M216.481353,275.130912 C224.653587,262.863 231.03,249.489766 235.417075,235.417075 C249.454194,231.020982 262.792389,224.644843 275.028556,216.481353 C262.659248,242.062026 241.883297,262.621184 216.174288,274.721491 L216.481353,275.130912 Z" id="path-1"></path>
        <filter x="-5.6%" y="-4.9%" width="111.2%" height="111.2%" filterUnits="objectBoundingBox" id="filter-2">
            <feOffset dx="0" dy="2" in="SourceAlpha" result="shadowOffsetOuter1"></feOffset>
            <feGaussianBlur stdDeviation="5" in="shadowOffsetOuter1" result="shadowBlurOuter1"></feGaussianBlur>
            <feColorMatrix values="0 0 0 0 0.0943346088   0 0 0 0 0.0943346088   0 0 0 0 0.0943346088  0 0 0 0.278299825 0" type="matrix" in="shadowBlurOuter1"></feColorMatrix>
        </filter>
    </defs>
    <g id="Solutions" stroke="none" stroke-width="1" fill="none" fill-rule="evenodd">
        <g id="Solutions-subpage/The-international-Trade-Portal-v7" transform="translate(-1000.000000, -250.000000)">
            <g id="Outlined/UI/globe" transform="translate(990.000000, 237.000000)">
                <g id="Style">
                    <use fill="black" fill-opacity="1" filter="url(#filter-2)" xlink:href="#path-1"></use>
                    <use fill="#FFFEFC" fill-rule="evenodd" xlink:href="#path-1"></use>
                </g>
            </g>
        </g>
    </g>
</svg>